<svg width="400" height="106" viewBox="0 0 400 106" fill="none" xmlns="http://www.w3.org/2000/svg">
<rect width="400" height="106" fill="white"/>
<path d="M117.368 31.2C118.264 31.2 118.989 31.4773 119.544 32.032C120.141 32.544 120.44 33.248 120.44 34.144C120.44 35.04 120.141 35.744 119.544 36.256C118.989 36.768 118.264 37.024 117.368 37.024H105.976V72.928C105.976 73.7813 105.656 74.5067 105.016 75.104C104.419 75.7013 103.651 76 102.712 76C101.773 76 100.984 75.7013 100.344 75.104C99.7467 74.5067 99.448 73.7813 99.448 72.928V37.024H88.12C87.224 37.024 86.4773 36.768 85.88 36.256C85.3253 35.7013 85.048 34.976 85.048 34.08C85.048 33.2267 85.3253 32.544 85.88 32.032C86.4773 31.4773 87.224 31.2 88.12 31.2H117.368ZM151.101 59.232C151.101 62.56 150.354 65.5467 148.861 68.192C147.367 70.8373 145.319 72.9067 142.717 74.4C140.157 75.8933 137.319 76.64 134.205 76.64C131.09 76.64 128.231 75.8933 125.629 74.4C123.069 72.9067 121.042 70.8373 119.549 68.192C118.055 65.5467 117.309 62.56 117.309 59.232C117.309 55.904 118.055 52.896 119.549 50.208C121.042 47.52 123.069 45.4293 125.629 43.936C128.231 42.4427 131.09 41.696 134.205 41.696C137.319 41.696 140.157 42.4427 142.717 43.936C145.319 45.4293 147.367 47.52 148.861 50.208C150.354 52.896 151.101 55.904 151.101 59.232ZM145.021 59.232C145.021 56.928 144.53 54.88 143.549 53.088C142.61 51.2533 141.309 49.8453 139.645 48.864C138.023 47.84 136.21 47.328 134.205 47.328C132.199 47.328 130.365 47.84 128.701 48.864C127.079 49.8453 125.778 51.2533 124.797 53.088C123.858 54.88 123.389 56.928 123.389 59.232C123.389 61.4933 123.858 63.52 124.797 65.312C125.778 67.104 127.079 68.512 128.701 69.536C130.365 70.5173 132.199 71.008 134.205 71.008C136.21 71.008 138.023 70.5173 139.645 69.536C141.309 68.512 142.61 67.104 143.549 65.312C144.53 63.52 145.021 61.4933 145.021 59.232ZM175.001 41.888C177.902 41.888 180.526 42.6347 182.873 44.128C185.22 45.5787 187.054 47.6267 188.377 50.272C189.742 52.9173 190.425 55.904 190.425 59.232C190.425 62.56 189.742 65.5467 188.377 68.192C187.054 70.7947 185.22 72.8427 182.873 74.336C180.526 75.8293 177.945 76.576 175.129 76.576C172.91 76.576 170.841 76.0853 168.921 75.104C167.001 74.1227 165.444 72.928 164.249 71.52V85.728C164.249 86.5813 163.95 87.3067 163.353 87.904C162.798 88.5013 162.073 88.8 161.177 88.8C160.324 88.8 159.598 88.5013 159.001 87.904C158.446 87.3493 158.169 86.624 158.169 85.728V45.472C158.169 44.576 158.446 43.8293 159.001 43.232C159.556 42.6347 160.281 42.336 161.177 42.336C162.073 42.336 162.798 42.6347 163.353 43.232C163.95 43.8293 164.249 44.576 164.249 45.472V47.328C165.273 45.8347 166.766 44.5547 168.729 43.488C170.692 42.4213 172.782 41.888 175.001 41.888ZM174.297 70.944C176.26 70.944 178.03 70.432 179.609 69.408C181.188 68.384 182.404 66.9973 183.257 65.248C184.153 63.456 184.601 61.4507 184.601 59.232C184.601 57.0133 184.153 55.0293 183.257 53.28C182.404 51.488 181.188 50.08 179.609 49.056C178.03 48.032 176.26 47.52 174.297 47.52C172.292 47.52 170.5 48.032 168.921 49.056C167.342 50.0373 166.105 51.424 165.209 53.216C164.356 55.008 163.929 57.0133 163.929 59.232C163.929 61.4507 164.356 63.456 165.209 65.248C166.105 67.04 167.342 68.448 168.921 69.472C170.5 70.4533 172.292 70.944 174.297 70.944ZM229.226 59.232C229.226 62.56 228.479 65.5467 226.986 68.192C225.492 70.8373 223.444 72.9067 220.842 74.4C218.282 75.8933 215.444 76.64 212.33 76.64C209.215 76.64 206.356 75.8933 203.754 74.4C201.194 72.9067 199.167 70.8373 197.674 68.192C196.18 65.5467 195.434 62.56 195.434 59.232C195.434 55.904 196.18 52.896 197.674 50.208C199.167 47.52 201.194 45.4293 203.754 43.936C206.356 42.4427 209.215 41.696 212.33 41.696C215.444 41.696 218.282 42.4427 220.842 43.936C223.444 45.4293 225.492 47.52 226.986 50.208C228.479 52.896 229.226 55.904 229.226 59.232ZM223.146 59.232C223.146 56.928 222.655 54.88 221.674 53.088C220.735 51.2533 219.434 49.8453 217.77 48.864C216.148 47.84 214.335 47.328 212.33 47.328C210.324 47.328 208.49 47.84 206.826 48.864C205.204 49.8453 203.903 51.2533 202.922 53.088C201.983 54.88 201.514 56.928 201.514 59.232C201.514 61.4933 201.983 63.52 202.922 65.312C203.903 67.104 205.204 68.512 206.826 69.536C208.49 70.5173 210.324 71.008 212.33 71.008C214.335 71.008 216.148 70.5173 217.77 69.536C219.434 68.512 220.735 67.104 221.674 65.312C222.655 63.52 223.146 61.4933 223.146 59.232ZM242.886 72.928C242.886 73.7813 242.587 74.5067 241.99 75.104C241.393 75.7013 240.667 76 239.814 76C238.961 76 238.235 75.7013 237.638 75.104C237.083 74.5067 236.806 73.7813 236.806 72.928V31.712C236.806 30.8587 237.105 30.1333 237.702 29.536C238.299 28.9387 239.025 28.64 239.878 28.64C240.731 28.64 241.435 28.9387 241.99 29.536C242.587 30.1333 242.886 30.8587 242.886 31.712V72.928ZM283.601 59.232C283.601 62.56 282.854 65.5467 281.361 68.192C279.867 70.8373 277.819 72.9067 275.217 74.4C272.657 75.8933 269.819 76.64 266.705 76.64C263.59 76.64 260.731 75.8933 258.129 74.4C255.569 72.9067 253.542 70.8373 252.049 68.192C250.555 65.5467 249.809 62.56 249.809 59.232C249.809 55.904 250.555 52.896 252.049 50.208C253.542 47.52 255.569 45.4293 258.129 43.936C260.731 42.4427 263.59 41.696 266.705 41.696C269.819 41.696 272.657 42.4427 275.217 43.936C277.819 45.4293 279.867 47.52 281.361 50.208C282.854 52.896 283.601 55.904 283.601 59.232ZM277.521 59.232C277.521 56.928 277.03 54.88 276.049 53.088C275.11 51.2533 273.809 49.8453 272.145 48.864C270.523 47.84 268.71 47.328 266.705 47.328C264.699 47.328 262.865 47.84 261.201 48.864C259.579 49.8453 258.278 51.2533 257.297 53.088C256.358 54.88 255.889 56.928 255.889 59.232C255.889 61.4933 256.358 63.52 257.297 65.312C258.278 67.104 259.579 68.512 261.201 69.536C262.865 70.5173 264.699 71.008 266.705 71.008C268.71 71.008 270.523 70.5173 272.145 69.536C273.809 68.512 275.11 67.104 276.049 65.312C277.03 63.52 277.521 61.4933 277.521 59.232ZM318.701 42.016C319.597 42.016 320.322 42.3147 320.877 42.912C321.474 43.4667 321.773 44.2133 321.773 45.152V73.312C321.773 76.768 321.026 79.648 319.533 81.952C318.082 84.2987 316.098 86.0267 313.581 87.136C311.064 88.2453 308.226 88.8 305.069 88.8C303.362 88.8 301.357 88.5013 299.053 87.904C296.792 87.3067 295.341 86.688 294.701 86.048C293.378 85.3653 292.717 84.512 292.717 83.488C292.717 83.232 292.802 82.8907 292.973 82.464C293.442 81.3973 294.232 80.864 295.341 80.864C295.896 80.864 296.493 80.992 297.133 81.248C300.546 82.5707 303.213 83.232 305.133 83.232C308.546 83.232 311.149 82.4 312.941 80.736C314.776 79.1147 315.693 76.8747 315.693 74.016V70.56C314.797 72.224 313.282 73.6533 311.149 74.848C309.058 76.0427 306.84 76.64 304.493 76.64C301.549 76.64 298.861 75.8933 296.429 74.4C293.997 72.9067 292.077 70.8373 290.669 68.192C289.304 65.504 288.621 62.496 288.621 59.168C288.621 55.84 289.304 52.8533 290.669 50.208C292.077 47.52 293.976 45.4293 296.365 43.936C298.797 42.4427 301.464 41.696 304.365 41.696C306.712 41.696 308.888 42.2293 310.893 43.296C312.941 44.3627 314.541 45.664 315.693 47.2V45.152C315.693 44.256 315.97 43.5093 316.525 42.912C317.08 42.3147 317.805 42.016 318.701 42.016ZM305.197 71.008C307.288 71.008 309.144 70.5173 310.765 69.536C312.386 68.512 313.645 67.104 314.541 65.312C315.48 63.4773 315.949 61.4293 315.949 59.168C315.949 56.9067 315.48 54.88 314.541 53.088C313.645 51.296 312.386 49.888 310.765 48.864C309.144 47.84 307.288 47.328 305.197 47.328C303.149 47.328 301.314 47.84 299.693 48.864C298.072 49.888 296.792 51.3173 295.853 53.152C294.957 54.944 294.509 56.9493 294.509 59.168C294.509 61.3867 294.957 63.4133 295.853 65.248C296.792 67.04 298.072 68.448 299.693 69.472C301.314 70.496 303.149 71.008 305.197 71.008ZM336.554 72.928C336.554 73.7813 336.255 74.5067 335.658 75.104C335.103 75.7013 334.378 76 333.482 76C332.629 76 331.903 75.7013 331.306 75.104C330.751 74.5067 330.474 73.7813 330.474 72.928V45.216C330.474 44.3627 330.751 43.6373 331.306 43.04C331.903 42.4427 332.629 42.144 333.482 42.144C334.378 42.144 335.103 42.4427 335.658 43.04C336.255 43.6373 336.554 44.3627 336.554 45.216V72.928ZM333.482 37.92C332.245 37.92 331.349 37.7067 330.794 37.28C330.282 36.8107 330.026 36.0853 330.026 35.104V34.08C330.026 33.056 330.303 32.3307 330.858 31.904C331.455 31.4773 332.351 31.264 333.546 31.264C334.741 31.264 335.594 31.4987 336.106 31.968C336.661 32.3947 336.938 33.0987 336.938 34.08V35.104C336.938 36.128 336.661 36.8533 336.106 37.28C335.551 37.7067 334.677 37.92 333.482 37.92ZM372.686 70.688C373.326 71.3707 373.646 72.1173 373.646 72.928C373.646 73.7813 373.305 74.5067 372.622 75.104C371.982 75.6587 371.299 75.936 370.574 75.936C369.635 75.936 368.889 75.5947 368.334 74.912L355.726 61.536L351.886 64.992V72.928C351.886 73.7813 351.587 74.5067 350.99 75.104C350.435 75.7013 349.731 76 348.878 76C347.982 76 347.235 75.7013 346.638 75.104C346.083 74.5067 345.806 73.7813 345.806 72.928V31.712C345.806 30.8587 346.083 30.1333 346.638 29.536C347.235 28.9387 347.982 28.64 348.878 28.64C349.731 28.64 350.435 28.9387 350.99 29.536C351.587 30.1333 351.886 30.8587 351.886 31.712V57.696L367.566 43.296C368.291 42.656 369.038 42.336 369.806 42.336C370.531 42.336 371.193 42.656 371.79 43.296C372.387 43.8933 372.686 44.5333 372.686 45.216C372.686 46.0693 372.281 46.8373 371.47 47.52L360.398 57.376L372.686 70.688Z" fill="#272727"/>
<path fill-rule="evenodd" clip-rule="evenodd" d="M46 34.6188L29.2154 44.3094V63.6906L46 73.3812L62.7846 63.6906V44.3094L46 34.6188ZM66.7846 42L46 30L25.2154 42V66L46 78L66.7846 66V42Z" fill="#2E2E2E"/>
<path fill-rule="evenodd" clip-rule="evenodd" d="M46 43.6188L37.0096 48.8094V59.1906L46 54.3812L54.9904 59.1906V48.8094L46 43.6188ZM58.9904 46.5L46 39L33.0096 46.5V61.5L46 69L58.9904 61.5V46.5Z" fill="#2E2E2E"/>
</svg>
